<svg width="22" height="22" viewBox="0 0 22 22" fill="none" xmlns="http://www.w3.org/2000/svg">
<g clip-path="url(#clip0_5_1152)">
<path d="M11.0076 11.0002L3.66671 22.0001L0 18.3334C0 18.3334 6.04096 12.1021 10.7395 10.8181L11.0076 11.0002Z" fill="black"/>
<path d="M10.9999 11.0076L0 3.66671L3.66671 0C3.66671 0 9.89795 6.04096 11.182 10.7395L10.9999 11.0076Z" fill="black"/>
<path d="M10.9924 10.9999L18.3333 0L22 3.66671C22 3.66671 15.959 9.89795 11.2605 11.182L10.9924 10.9999Z" fill="black"/>
<path d="M11.0001 10.9924L22 18.3333L18.3333 22C18.3333 22 12.1021 15.959 10.8181 11.2605L11.0001 10.9924Z" fill="black"/>
</g>
<defs>
<clipPath id="clip0_5_1152">
<rect width="22" height="22" fill="white"/>
</clipPath>
</defs>
</svg>
