<svg width="173" height="37" viewBox="0 0 173 37" fill="none" xmlns="http://www.w3.org/2000/svg">
<g clip-path="url(#clip0_177_2102)">
<path d="M32.6985 1.02002V16.2786C32.6985 25.8141 27.1058 35.5698 16.1047 35.5698C9.46002 35.5698 4.35285 30.5211 0.5 26.7627V33.839C3.75042 35.4799 9.43305 36.95 16.2846 36.95C31.3363 36.95 40.3953 30.067 40.3953 17.4879V1.02002H32.6985Z" fill="black"/>
<path d="M78.2765 -0.000488281C61.8356 -0.000488281 51.0952 7.01288 51.0952 18.4366C51.0952 29.8603 61.8356 36.9995 78.2765 36.9995C94.7174 36.9995 105.485 29.9367 105.485 18.4366C105.485 6.93645 94.7174 -0.000488281 78.2765 -0.000488281ZM78.2765 35.5699C66.6685 35.5699 59.6057 29.1724 59.6057 18.4051C59.6057 7.63778 66.6685 1.43365 78.2765 1.43365C89.8845 1.43365 96.9743 7.75018 96.9743 18.4051C96.9743 29.06 89.9115 35.5699 78.2765 35.5699Z" fill="black"/>
<path d="M116.023 1.02002V35.9789H123.715V1.02002H116.023Z" fill="black"/>
<path d="M32.6985 1.02002V2.77786C25.6762 2.77786 12.0406 2.36425 0.5 7.71868V1.02002H32.6985Z" fill="black"/>
<path d="M123.715 1.02002V2.77786C130.737 2.77786 144.373 2.36425 155.913 7.71868V1.02002H123.715Z" fill="black"/>
<path d="M123.715 21.8174V22.6941C127.217 22.6941 134.019 22.4872 139.774 25.1577V21.8174H123.715Z" fill="black"/>
<path d="M123.715 21.8174V20.9407C127.217 20.9407 134.019 21.1475 139.774 18.4771V21.8174H123.715Z" fill="black"/>
<path d="M164.424 1.02002V35.9789H172.125V1.02002H164.424Z" fill="black"/>
</g>
<defs>
<clipPath id="clip0_177_2102">
<rect width="171.625" height="37" fill="white" transform="translate(0.5 -0.000488281)"/>
</clipPath>
</defs>
</svg>
